<?xml version="1.0" encoding="utf-8"?>
<!-- Generator: Adobe Illustrator 23.0.2, SVG Export Plug-In . SVG Version: 6.00 Build 0)  -->
<svg version="1.1" id="Layer_1" xmlns="http://www.w3.org/2000/svg" xmlns:xlink="http://www.w3.org/1999/xlink" x="0px" y="0px"
	 viewBox="0 0 468 288" style="enable-background:new 0 0 468 288;" xml:space="preserve">
<style type="text/css">
	.st0{fill:#FFFFFF;}
	.st1{fill:#E32B26;}
	.st2{fill:#FFC628;}
</style>
<g>
	<path class="st0" d="M174.05,192.35v7.64h-2.32v-11.93h1.8l6.22,7.83v-7.81h2.32v11.91h-1.88L174.05,192.35z"/>
	<path class="st0" d="M188.72,200.16c-0.71,0-1.34-0.12-1.92-0.36c-0.57-0.24-1.06-0.57-1.46-0.98c-0.4-0.41-0.71-0.9-0.93-1.44
		c-0.22-0.55-0.33-1.13-0.33-1.73c0-0.63,0.11-1.22,0.32-1.77s0.52-1.04,0.92-1.46c0.4-0.42,0.89-0.75,1.47-1
		c0.58-0.25,1.22-0.37,1.94-0.37c0.72,0,1.36,0.12,1.92,0.37c0.57,0.25,1.05,0.58,1.44,0.99c0.4,0.42,0.7,0.9,0.91,1.45
		c0.21,0.55,0.31,1.12,0.31,1.71c0,0.15,0,0.29-0.01,0.42c-0.01,0.13-0.02,0.25-0.04,0.34h-6.8c0.03,0.35,0.12,0.66,0.25,0.92
		c0.13,0.27,0.31,0.5,0.52,0.69c0.21,0.19,0.45,0.34,0.72,0.44c0.27,0.1,0.55,0.15,0.84,0.15c0.45,0,0.87-0.11,1.27-0.33
		c0.4-0.22,0.67-0.51,0.82-0.87l1.93,0.54c-0.33,0.67-0.84,1.22-1.55,1.65C190.55,199.94,189.7,200.16,188.72,200.16z M191,194.85
		c-0.06-0.66-0.3-1.19-0.73-1.59c-0.43-0.4-0.96-0.6-1.57-0.6c-0.3,0-0.59,0.05-0.85,0.16c-0.26,0.11-0.5,0.25-0.7,0.44
		c-0.2,0.19-0.37,0.42-0.5,0.69c-0.13,0.27-0.2,0.57-0.23,0.89H191z"/>
	<path class="st0" d="M205.8,191.19h2.13l-3.68,8.8h-1.85l-1.51-3.86l-1.5,3.86h-1.85l-3.66-8.8h2.12l2.62,6.69l1.08-2.86
		l-1.55-3.81h1.81l0.92,2.71l0.94-2.71h1.81l-1.53,3.81l1.06,2.86L205.8,191.19z"/>
	<path class="st0" d="M214.39,188.06l2.94,5.75l2.99-5.75h2.5l-4.33,7.76v4.17h-2.3v-4.2l-4.32-7.73H214.39z"/>
	<path class="st0" d="M226.84,200.16c-0.72,0-1.36-0.12-1.93-0.37c-0.57-0.25-1.06-0.58-1.45-1c-0.4-0.42-0.7-0.9-0.92-1.45
		c-0.21-0.55-0.32-1.12-0.32-1.73c0-0.62,0.11-1.2,0.32-1.75c0.21-0.55,0.52-1.03,0.92-1.45c0.4-0.42,0.88-0.75,1.45-1
		c0.57-0.25,1.22-0.37,1.93-0.37s1.36,0.12,1.92,0.37c0.57,0.25,1.05,0.58,1.44,1c0.4,0.42,0.7,0.9,0.92,1.45
		c0.21,0.55,0.32,1.13,0.32,1.75c0,0.61-0.11,1.18-0.32,1.73c-0.21,0.55-0.52,1.03-0.91,1.45c-0.39,0.42-0.87,0.75-1.44,1
		C228.2,200.03,227.55,200.16,226.84,200.16z M224.53,195.6c0,0.39,0.06,0.75,0.18,1.07c0.12,0.32,0.28,0.6,0.49,0.83
		c0.21,0.24,0.45,0.42,0.73,0.55c0.28,0.13,0.58,0.19,0.91,0.19c0.32,0,0.63-0.06,0.91-0.19c0.28-0.13,0.52-0.31,0.73-0.55
		c0.21-0.23,0.37-0.51,0.49-0.84c0.12-0.32,0.18-0.68,0.18-1.07c0-0.38-0.06-0.73-0.18-1.06c-0.12-0.33-0.28-0.61-0.49-0.84
		c-0.21-0.24-0.45-0.42-0.73-0.55c-0.28-0.13-0.58-0.19-0.91-0.19c-0.32,0-0.63,0.07-0.91,0.2c-0.28,0.13-0.52,0.32-0.73,0.55
		c-0.21,0.24-0.37,0.52-0.49,0.84C224.59,194.87,224.53,195.22,224.53,195.6z"/>
	<path class="st0" d="M238.61,193.14c-0.68,0.01-1.29,0.14-1.83,0.39c-0.54,0.25-0.92,0.63-1.16,1.13v5.33h-2.25v-8.8h2.07v1.88
		c0.16-0.3,0.34-0.57,0.55-0.82c0.21-0.24,0.44-0.45,0.69-0.63c0.25-0.18,0.5-0.32,0.75-0.41c0.25-0.1,0.5-0.14,0.73-0.14
		c0.12,0,0.22,0,0.28,0c0.06,0,0.12,0.01,0.18,0.02V193.14z"/>
	<path class="st0" d="M246.31,199.99l-2.55-3.81l-1.21,1.19v2.62h-2.25v-12.26h2.25v7.44l3.53-3.96h2.4l-3.28,3.73l3.51,5.06H246.31
		z"/>
	<path class="st0" d="M264.48,199.99v-7.9l-3.07,5.88h-1.26l-3.07-5.88v7.9h-2.32v-11.93h2.49l3.53,6.79l3.56-6.79h2.47v11.93
		H264.48z"/>
	<path class="st0" d="M273.46,200.16c-0.71,0-1.34-0.12-1.92-0.36c-0.57-0.24-1.06-0.57-1.46-0.98c-0.4-0.41-0.71-0.9-0.93-1.44
		c-0.22-0.55-0.33-1.13-0.33-1.73c0-0.63,0.11-1.22,0.32-1.77c0.21-0.55,0.52-1.04,0.92-1.46c0.4-0.42,0.89-0.75,1.47-1
		c0.58-0.25,1.22-0.37,1.94-0.37s1.36,0.12,1.92,0.37c0.57,0.25,1.05,0.58,1.44,0.99c0.4,0.42,0.7,0.9,0.91,1.45
		c0.21,0.55,0.31,1.12,0.31,1.71c0,0.15,0,0.29-0.01,0.42c-0.01,0.13-0.02,0.25-0.04,0.34h-6.8c0.03,0.35,0.12,0.66,0.25,0.92
		c0.13,0.27,0.31,0.5,0.52,0.69c0.21,0.19,0.45,0.34,0.72,0.44c0.27,0.1,0.55,0.15,0.84,0.15c0.45,0,0.87-0.11,1.27-0.33
		c0.4-0.22,0.67-0.51,0.81-0.87l1.93,0.54c-0.32,0.67-0.84,1.22-1.55,1.65C275.29,199.94,274.44,200.16,273.46,200.16z
		 M275.74,194.85c-0.06-0.66-0.3-1.19-0.73-1.59c-0.43-0.4-0.96-0.6-1.57-0.6c-0.3,0-0.59,0.05-0.85,0.16
		c-0.26,0.11-0.5,0.25-0.7,0.44c-0.2,0.19-0.37,0.42-0.5,0.69c-0.13,0.27-0.2,0.57-0.23,0.89H275.74z"/>
	<path class="st0" d="M285.06,199.54c-0.3,0.13-0.67,0.27-1.11,0.4c-0.44,0.13-0.9,0.2-1.38,0.2c-0.31,0-0.61-0.04-0.88-0.12
		c-0.27-0.08-0.52-0.2-0.72-0.38c-0.21-0.17-0.37-0.4-0.5-0.67c-0.12-0.27-0.19-0.61-0.19-1v-5.06h-1.16v-1.73h1.16v-2.86h2.25v2.86
		h1.85v1.73h-1.85v4.3c0,0.31,0.08,0.54,0.24,0.66c0.16,0.13,0.36,0.19,0.6,0.19c0.24,0,0.46-0.04,0.69-0.12
		c0.22-0.08,0.4-0.15,0.54-0.2L285.06,199.54z"/>
	<path class="st0" d="M291.9,193.14c-0.68,0.01-1.29,0.14-1.83,0.39c-0.54,0.25-0.92,0.63-1.16,1.13v5.33h-2.25v-8.8h2.07v1.88
		c0.16-0.3,0.34-0.57,0.55-0.82c0.21-0.24,0.44-0.45,0.69-0.63c0.25-0.18,0.5-0.32,0.75-0.41c0.25-0.1,0.5-0.14,0.73-0.14
		c0.12,0,0.22,0,0.28,0c0.06,0,0.12,0.01,0.18,0.02V193.14z"/>
	<path class="st0" d="M297.21,200.16c-0.72,0-1.36-0.12-1.93-0.37s-1.06-0.58-1.45-1c-0.4-0.42-0.7-0.9-0.92-1.45
		c-0.21-0.55-0.32-1.12-0.32-1.73c0-0.62,0.11-1.2,0.32-1.75c0.21-0.55,0.52-1.03,0.92-1.45c0.4-0.42,0.88-0.75,1.45-1
		c0.57-0.25,1.21-0.37,1.93-0.37c0.72,0,1.36,0.12,1.92,0.37c0.57,0.25,1.05,0.58,1.45,1c0.4,0.42,0.7,0.9,0.91,1.45
		c0.21,0.55,0.32,1.13,0.32,1.75c0,0.61-0.11,1.18-0.32,1.73c-0.21,0.55-0.51,1.03-0.91,1.45c-0.39,0.42-0.87,0.75-1.44,1
		C298.57,200.03,297.93,200.16,297.21,200.16z M294.91,195.6c0,0.39,0.06,0.75,0.18,1.07c0.12,0.32,0.28,0.6,0.49,0.83
		c0.21,0.24,0.45,0.42,0.73,0.55c0.28,0.13,0.58,0.19,0.91,0.19c0.32,0,0.63-0.06,0.91-0.19c0.28-0.13,0.52-0.31,0.73-0.55
		c0.21-0.23,0.37-0.51,0.49-0.84c0.12-0.32,0.18-0.68,0.18-1.07c0-0.38-0.06-0.73-0.18-1.06c-0.12-0.33-0.28-0.61-0.49-0.84
		c-0.21-0.24-0.45-0.42-0.73-0.55c-0.28-0.13-0.58-0.19-0.91-0.19c-0.33,0-0.63,0.07-0.91,0.2c-0.28,0.13-0.52,0.32-0.73,0.55
		c-0.21,0.24-0.37,0.52-0.49,0.84C294.97,194.87,294.91,195.22,294.91,195.6z"/>
</g>
<g>
	<g>
		<g>
			<path class="st1" d="M157.94,92.83l0.19,3.56c-1.04,0-0.29,1.38-1.19,1.43c-1.58,4.89-6.57,4.2-8.5,8.75
				c-1.04,1.43-1.98,2.86-1.93,4.74l-0.94,0.74c0.1,0.3,0.5,0.25,0.69,0.25v0.94h-1.63c-1.19-3.61,2.23-7.12,0.69-10.93
				c-2.52-3.26-8.06-5.93-5.44-10.68c0.59,0.2,1.04-0.54,1.19-0.94c0.05-0.25-0.15-0.34-0.25-0.49c1.29-1.88,3.91-1.29,5.69-1.43
				c0.64,0.1,1.14,0.74,1.68,1.19c1.34-0.79,1.83-2.18,3.81-1.63l0.45-0.5C154.73,88.93,158.04,89.52,157.94,92.83"/>
			<path class="st0" d="M155.76,92.14c0.2,1.38,0.25,3.36-0.45,4.74c-0.35,0.49-1.68,0.74-1.68,1.63h-0.45l-5.49,5
				c-0.35-3.61-3.71-4.4-5.19-7.37c-1.33-0.25-1.04-1.83-0.74-2.62c0.64-1.04,1.48-2.17,2.62-2.82c1.43-0.54,2.77,0.64,3.07,2.13
				c1.38,0.25,1.09,2.67,2.62,1.88c0.79-0.69,0.54-1.29,0.25-2.13c-0.34-0.44-0.99-0.89-0.49-1.63
				C151.51,89.92,155.12,89.57,155.76,92.14"/>
			<path d="M124.33,107.06c1.01,2.84,4.04,4.57,6.25,6.44c2.98,2.02,5.48,4.28,8.31,6.25c2.07-2.21,0.62-6.3,2.5-8.8
				c1.35-1.01,2.31,1.11,3.7,1.88c1.35-0.24,3.22,0.58,3.94-0.72c0.43,0.19,1.2,0.72,1.15,1.16c-3.51,2.55-2.59,7.59-4.38,10.86
				c0.29,1.15-0.53,1.83-0.24,2.98c3.22,3.99,7.83,6.63,11.78,9.95c0.67-0.29,1.2,0.43,1.35,0.91c-0.33-0.05-0.48,0.39-0.91,0.24
				c-1.49,4.86-0.82,9.47-2.07,13.84c1.06,0.62,0,1.53,0,2.31c0.87,5.14-1.78,10.33,0.48,15.43c0.29,0.96-0.52,1.69-0.24,2.31
				c-0.48,2.69,0.91,6.92,0,9.71c0.29,0.67,0.1,1.83-0.24,2.79c0.24,4.32-0.19,7.83-0.24,11.72c0.2,0.68,1.06,1.35,1.64,0.72
				c0.14,0.58-0.92,1.54-0.72,2.31c-3.27,0.09-7.35-0.15-10.82-0.72c-9.47,1-19.95,2.26-28.84-0.2c-7.83,0.63-14.95,0.87-22.64-0.24
				c-0.43,0.87-1.54,0.28-2.31,0.44c-0.72-1.15-1.54,0.72-2.31-0.67c1.54-2.94-0.67-5.82,0.72-8.99c0.29-6.88,0.29-14.42,0.92-21.49
				h0.24c0.1-4.76,1.59-8.41,1.16-13.12c0.53-4.09,0.05-8.03-0.48-12.26c-0.43-0.67-1.78-0.19-1.59-1.35
				c-0.38-1.39,2.31-1.82,1.83-3.7c0.38-0.43,1.1-0.19,1.63-0.24c1.06-2.02,2.93-3.41,4.37-5.09c2.74-1.73,3.75-4.81,6.68-6.2
				c4.85-5.05,11.01-8.65,14.76-14.33c1.3-1.01,1.92-2.11,2.31-3.7c-1.49-0.15-0.86-1.3-0.67-2.31h1.58
				c-0.05,0.24,0.15,0.38,0.24,0.48c1.21,0.04,1.3-1.78,2.79-1.4L124.33,107.06z"/>
		</g>
		<path class="st0" d="M125.25,111.43c1.97,1.06,3.27,3.22,5.58,3.94c0,0.91,1.2,1.44,1.58,1.83c1.2,1.49,3.03,2.5,3.94,3.7
			c3.22,2.17,5.04,4.76,6.68,7.84c4.32,2.88,7.31,6.54,11.53,9.23c-0.34,2.64-0.34,5.19,0,7.6c-0.53,0.43,0.05,1.87-0.48,2.54
			c-0.48,0.77-0.96,2.17-0.44,3.22h-0.48c0.19,3.08,0,7.06-0.91,9.71c0.63,2.21-0.39,4.71,0.91,6.92c0.15,9.23-0.1,18.65-0.67,28.16
			c-0.34,0.58-1.39-0.24-1.39,0.67h-0.48c-0.67-1.39-1.92-0.19-3.22-0.67c-4.37,0.34-8.7,1.49-13.6,1.35
			c-4.37,0.14-8.6-0.09-12.69-0.68v-0.24c-3.12-0.91-6.68-0.24-9.9,0c-3.85,1.11-8.22-0.14-12.5,0.24v-0.24
			c-0.87-0.33-2.12-0.33-2.98,0v0.24c-0.19-0.67-1.2-0.38-1.83-0.48c0.14,0.48-1.3-0.05-1.88-0.2c0.19-14.32,1.35-30.76,2.55-45.47
			c-0.96-3.55-1.06-8.41,0-12.02c2.21-1.49,2.98-4.13,5.53-5.52c6.29-8.75,16.34-12.98,21.68-22.59
			C122.89,108.21,124.48,110.81,125.25,111.43"/>
		<path class="st0" d="M147.16,114.41c-0.43,1.44-0.19,3.94-1.59,5.09l-1.15,5.1c-0.77,0.19-0.58-0.29-0.91-0.72
			c-1.01-1.54-2.79-1.54-3.46-3.22c0.72-2.4,0.96-5,1.83-7.4C143.94,112.92,145,115.71,147.16,114.41"/>
		<path d="M133.22,133.41c3.44,4.54,7.87,7.68,13.53,8.29c0.85-0.01,1.63-0.09,2.42-0.21c0.29,0,0.53,0.25,0.56,0.58l-0.23,0.69
			l-8.46,12.7c-0.41,0.87-1.58,0.23-1.78,1.18l-0.38,0.81c0.55,1.03,0.76,2.45,0.33,3.45c-1.19,1.86-3.02,3.24-3.66,5.38
			c0.23,1.58,1.24,2.88,1.73,4.4c0.45,1.05,0.63,2.18,0.6,3.38c0.85-0.33,2.05-1,2.84-0.1c0.7,0.81,0.51,2.03,0.06,2.92
			c-0.68,1.3-2.29,2.05-3.53,2.74c-0.29,1.01-0.32,2.24-1.36,2.82c-0.69,0.45-1.48,0.54-2.31,0.65c-0.26,0.94-0.93,1.79-1.95,1.95
			c-0.04,0.74,0.05,1.72-0.67,2.17c-0.54,0.5-1.23,0.62-1.94,0.49c-0.14,1.05-0.72,2.04-1.73,2.36l-1.04,0.08
			c-0.87,0.92-2.08,0.95-3.26,0.74c-0.66-0.26-1.28-0.49-1.78-1.09c-1.01,0.09-2.04-0.37-2.55-1.13c-0.34-0.46-0.58-1.01-0.79-1.51
			c-1.45-0.15-2.52-1.46-2.84-2.76l-0.24-1.46c-2.57-2.27-2.06-6.28-1-9.14l1.22-2.77c-0.91-1.95-2.09-3.72-3.1-5.64
			c-0.61-0.09-1.4-0.01-1.76-0.6l-2.85-5.23c-0.59-0.29-1.29-0.39-1.65-1.05l-6.99-12.82c-0.19-0.41,0-0.94,0.16-1.32l0.8-0.53
			c2.64-0.39,5.33-1.02,7.32-3.29c0.9-0.82,1.89-2.34,3.28-1.62l0.45,0.44l7.39,13.42c0.11,0.56-0.58,0.88-0.17,1.38l2.35,4.69
			c0.35,0.79-0.67,1.5,0.15,2.13l0.22-0.3c0.54-1.77,1.27-3.87,0.75-5.78c0.15-2.13,2.51-2.93,4.18-3.44l0.76-1.39
			c-0.36-0.59-0.58-1.33-0.28-2.01c2.09-4.89,4.23-9.71,6.35-14.57C132.59,133.21,132.97,133.25,133.22,133.41"/>
		<path class="st1" d="M147.37,143.22c-0.08,0.38-0.4,0.74-0.63,1.1c-5.7,0.82-10.59-2.63-14.27-6.7c0.09-0.54,0.33-1.01,0.57-1.47
			C136.79,140.17,141.37,143.78,147.37,143.22"/>
		<path class="st0" d="M145.46,146.05c-0.1,0.38-0.4,0.71-0.62,1.04c-5.55,0.22-10.03-2.67-13.67-6.61c0.17-0.4,0.25-0.85,0.54-1.18
			C135.38,143.18,139.82,146.26,145.46,146.05"/>
		<path class="st1" d="M143.77,148.58c-0.23,0.33-0.41,1.12-1.02,1.06c-5.26-0.04-9.38-2.63-12.91-6.05
			c0.08-0.51,0.29-0.98,0.57-1.44C134.07,145.62,138.27,148.74,143.77,148.58"/>
		<path class="st1" d="M116,152.63c0.06,1.66-1.81,2.42-2.94,3.38l-2.47,1.31c-0.16,0.27-0.29,0.62-0.09,0.9
			c0.96,1.07,2.05-0.38,2.99-0.67c1.14-0.63,2.16-1.44,3.12-2.25l2.28,4.16c-0.43,1.36-1.89,2.28-3.03,2.98
			c-1.37,0.68-2.79,1.57-4.35,1.25c-1.18-1.88-2.15-3.83-3.29-5.7c-0.58-0.06-1.21-0.22-1.44-0.87l-6.26-11.35
			c-0.09-0.4,0.4-0.42,0.61-0.56c3.05-0.31,5.89-2.37,8.09-4.51l0.38,0.11L116,152.63z"/>
		<path class="st0" d="M142.1,150.97c-0.14,0.44-0.4,0.81-0.7,1.17c-5.11,0.1-9.25-2.4-12.75-5.67c-0.02-0.52,0.3-1.01,0.54-1.48
			C132.79,148.28,136.84,150.93,142.1,150.97"/>
		<path class="st1" d="M140.36,153.43c0.03,0.39-0.36,0.61-0.58,0.92c-4.81,0.03-8.75-2.22-12.16-5.06
			c-0.22-0.41,0.06-0.91,0.25-1.25C131.38,150.93,135.37,153.35,140.36,153.43"/>
		<path class="st1" d="M137.77,155.94c-0.22,0.92-0.81,1.87-1.79,2.32c-1.93,1.04-4.33,0.7-6.22-0.24c-1.43-0.93-2.9-1.86-3-3.72
			c-0.06-1.05,0.36-1.98,0.87-2.77C130.62,153.72,133.96,155.36,137.77,155.94"/>
		<path class="st2" d="M125,153.93c-0.32,1.95,0.92,3.79,2.48,4.8c2.39,1.77,6.34,2.59,9.05,1.14l1.04-0.61
			c0.24,0.22,0.29,0.68,0.16,1.02c-1.07,1.87-2.71,3.4-3.57,5.39c-0.37,3.02,2.43,5.19,2.06,8.27c-0.18,2.07-0.29,4.17-0.76,6.2
			c-0.24-2.39-1.85-5.12-4.17-6.31c-0.6-0.15-1.11,0.02-1.58,0.24c-0.42,0.34-0.7,0.77-0.87,1.21c-0.59-0.32-1.21-0.02-1.74,0.12
			c-0.93,0.53-1.41,1.42-1.39,2.53c-0.84,0.27-1.5,1.08-1.63,1.95c0.07,0.59-0.1,1.29,0.21,1.8c-1.6,2.02-0.98,4.91-0.02,6.98
			l0.58,0.71c-0.39,0.32-1,0.22-1.44,0.05c-1.92-0.91-1.81-3.27-1.68-5.21c-0.04-1.18,0.79-2.72-0.06-3.65
			c-0.4-0.2-0.79,0.11-0.92,0.43c-0.59,2.28-1.09,4.99-0.44,7.24c-1.4-0.9-1.55-2.7-1.42-4.24c0.07-1.98,0.61-3.81,1.03-5.65
			c0.03-0.33-0.14-0.57-0.38-0.79c-0.4-0.23-0.79,0.11-0.95,0.42c-0.82,2.36-1.12,4.99-1.05,7.5c-0.76-0.17-1.02-1.14-1.25-1.82
			c-0.32-2.27,0.46-4.56,0.94-6.73c-0.03-0.36,0-0.88-0.49-0.96c-1.21,0.07-1.13,1.57-1.52,2.48l-0.33,2.28
			c-1.03-1.41-0.52-3.57-0.15-5.25c1.6-4.26,4.12-8,6.22-12.01c0.95-2.28,2.34-4.51,2.16-7.23c-0.2-0.64-0.08-1.5,0.27-2.09
			c0.46-0.4,1.01-0.64,1.57-0.75L125,153.93z"/>
		<path class="st0" d="M119.56,162.81c-1.04,2.27-2.26,4.42-3.52,6.56l-0.1-0.01l-2.27-4.19c1.84-0.85,3.75-1.73,5.39-3.19
			C119.3,162.13,119.39,162.53,119.56,162.81"/>
		<path d="M123.84,167.07c-0.05,0.78-0.35,1.49-0.35,2.18c0.76-1.1,1.56-2.54,2.85-3.1c0.39,0.04,0.61,0.36,0.71,0.66
			c0.35,2.93-0.5,5.93-1.45,8.53c-0.31-0.1-0.64-0.36-0.94-0.62c0.56-1.99,1.46-3.91,1.75-6.09c0.02-0.52,0.39-1.26-0.06-1.63
			c-0.93,0.52-1.33,1.52-1.93,2.34c-0.64,1.17-1.22,2.41-1.76,3.59c-0.32-0.39-1.66-0.62-1.03-1.4c0.8-1.84,1.58-3.78,1.73-5.94
			c-0.12-0.14-0.31-0.1-0.42,0c-1.59,1.59-2.62,3.47-3.6,5.39l-0.88-0.64c1.28-2.05,2.37-4.44,4.7-5.67
			c0.26,0.02,0.39,0.04,0.56,0.22C124.13,165.51,123.84,166.39,123.84,167.07"/>
		<path class="st0" d="M139.9,175.39c0.08,1.17-1.15,1.77-1.98,2.2c-0.1,0.03-0.33,0.1-0.28-0.09l0.16-1.64
			c0.62-0.33,1.18-0.76,1.87-0.82L139.9,175.39z"/>
		<path class="st0" d="M133.48,178.44c0.3,0.84,1.07,1.99,0.2,2.82c-0.16-0.02-0.24,0.17-0.39,0.09c-0.72-1.89-1.7-3.74-3.27-5.27
			c0.09-0.31,0.07-0.74,0.48-0.92C132.17,175.33,132.73,177.23,133.48,178.44"/>
		<path class="st0" d="M130.67,179.24c0.41,1.44,2.44,3.17,0.68,4.49c-0.93-2.01-2.29-3.65-4.15-5.52
			c-0.16-0.34-0.08-0.82,0.08-1.13c0.19-0.27,0.46-0.38,0.73-0.45C129.32,176.86,129.99,178.23,130.67,179.24"/>
		<path class="st0" d="M128.84,181.91c0.7,1.11,1.27,2.27,1.46,3.53c-0.01,0.42-0.33,0.75-0.68,0.91l-0.76-0.15
			c-0.61-1.68-0.94-4.19-3.1-4.7c-0.3-0.52-0.49-1.25-0.2-1.91c0.29-0.33,0.81-0.28,1.11-0.05
			C127.57,179.96,128.34,181.04,128.84,181.91"/>
		<path class="st0" d="M126.6,183.89c0.53,1.2,0.79,2.42,0.82,3.76c-0.1,0.35-0.34,0.81-0.79,0.83c-1.29-0.16-1.32-1.69-1.75-2.61
			c-0.21-0.84-0.17-1.9,0.27-2.67C125.71,182.7,126.39,183.35,126.6,183.89"/>
	</g>
	<g>
		<path d="M161.23,194.92c1.34,0,2.41,1.09,2.41,2.45c0,1.38-1.07,2.46-2.42,2.46c-1.34,0-2.43-1.08-2.43-2.46
			C158.8,196,159.88,194.92,161.23,194.92L161.23,194.92z M161.22,195.3c-1.08,0-1.96,0.93-1.96,2.07c0,1.17,0.88,2.08,1.97,2.08
			c1.09,0.01,1.97-0.92,1.97-2.07S162.33,195.3,161.22,195.3L161.22,195.3z M160.77,198.8h-0.44v-2.73
			c0.23-0.04,0.45-0.07,0.78-0.07c0.41,0,0.68,0.09,0.85,0.21c0.16,0.12,0.25,0.3,0.25,0.57c0,0.36-0.24,0.58-0.53,0.66v0.02
			c0.24,0.04,0.4,0.26,0.46,0.66c0.06,0.43,0.13,0.59,0.17,0.68h-0.46c-0.07-0.09-0.13-0.34-0.19-0.7
			c-0.06-0.35-0.24-0.48-0.59-0.48h-0.3V198.8z M160.77,197.28h0.32c0.36,0,0.66-0.13,0.66-0.47c0-0.24-0.17-0.48-0.66-0.48
			c-0.14,0-0.24,0.01-0.32,0.02V197.28z"/>
	</g>
</g>
<g>
	<path class="st0" d="M171.68,155.21v-17.38h7.57c0.78,0,1.5,0.16,2.17,0.49c0.66,0.33,1.23,0.75,1.7,1.28
		c0.47,0.53,0.84,1.13,1.11,1.81c0.27,0.68,0.41,1.37,0.41,2.07c0,0.59-0.08,1.15-0.25,1.69c-0.16,0.54-0.39,1.04-0.68,1.49
		c-0.29,0.46-0.65,0.85-1.08,1.19c-0.42,0.33-0.89,0.58-1.39,0.75l4.09,6.61h-3.11l-3.77-6.04h-4.02v6.04H171.68z M174.43,146.75
		h4.8c0.39,0,0.75-0.09,1.07-0.26c0.32-0.17,0.59-0.41,0.82-0.71c0.23-0.3,0.41-0.65,0.54-1.04c0.13-0.39,0.2-0.81,0.2-1.25
		c0-0.44-0.08-0.86-0.23-1.25c-0.16-0.39-0.36-0.73-0.61-1.03c-0.25-0.29-0.55-0.53-0.88-0.7c-0.33-0.17-0.68-0.26-1.04-0.26h-4.65
		V146.75z"/>
	<path class="st0" d="M193.16,155.46c-1.01,0-1.92-0.18-2.73-0.54c-0.81-0.36-1.5-0.84-2.07-1.44c-0.57-0.6-1.01-1.31-1.32-2.12
		c-0.31-0.81-0.46-1.65-0.46-2.54c0-0.88,0.15-1.72,0.46-2.53c0.31-0.81,0.75-1.51,1.34-2.12c0.58-0.6,1.27-1.09,2.08-1.44
		c0.81-0.36,1.71-0.54,2.71-0.54c0.99,0,1.9,0.18,2.7,0.54c0.81,0.36,1.5,0.84,2.08,1.44c0.58,0.61,1.02,1.31,1.34,2.12
		c0.31,0.81,0.46,1.65,0.46,2.53c0,0.88-0.15,1.73-0.46,2.54c-0.31,0.81-0.75,1.51-1.34,2.12c-0.58,0.6-1.27,1.09-2.08,1.44
		C195.05,155.28,194.15,155.46,193.16,155.46z M189.34,148.85c0,0.62,0.1,1.19,0.29,1.71c0.19,0.52,0.46,0.97,0.81,1.36
		c0.34,0.38,0.75,0.68,1.21,0.9c0.47,0.22,0.97,0.33,1.51,0.33c0.54,0,1.04-0.11,1.5-0.33c0.46-0.22,0.87-0.52,1.21-0.92
		c0.34-0.39,0.61-0.85,0.81-1.37c0.2-0.52,0.29-1.09,0.29-1.71c0-0.6-0.1-1.17-0.29-1.7c-0.2-0.53-0.47-0.99-0.81-1.38
		c-0.34-0.39-0.75-0.7-1.21-0.92c-0.47-0.22-0.97-0.33-1.5-0.33c-0.52,0-1.02,0.11-1.48,0.34c-0.47,0.23-0.87,0.54-1.21,0.93
		c-0.34,0.39-0.62,0.85-0.82,1.38C189.44,147.68,189.34,148.25,189.34,148.85z"/>
	<path class="st0" d="M213.86,155.21h-2.69v-7.17c0-1.21-0.19-2.08-0.58-2.63c-0.38-0.55-0.95-0.82-1.7-0.82
		c-0.39,0-0.78,0.07-1.17,0.22c-0.39,0.15-0.76,0.35-1.1,0.62c-0.34,0.27-0.65,0.59-0.92,0.96c-0.27,0.37-0.48,0.77-0.62,1.21v7.61
		h-2.69v-12.8h2.45v2.57c0.49-0.86,1.2-1.55,2.13-2.04c0.93-0.5,1.96-0.75,3.08-0.75c0.77,0,1.4,0.14,1.88,0.42
		c0.49,0.28,0.88,0.66,1.16,1.14c0.28,0.48,0.48,1.04,0.6,1.67c0.11,0.63,0.17,1.29,0.17,1.99V155.21z"/>
	<path class="st0" d="M220.65,155.46c-0.62,0-1.2-0.1-1.73-0.3c-0.53-0.21-0.99-0.49-1.37-0.85c-0.38-0.36-0.68-0.78-0.91-1.27
		c-0.22-0.49-0.33-1.02-0.33-1.59c0-0.6,0.13-1.15,0.39-1.64c0.26-0.49,0.63-0.92,1.11-1.28c0.48-0.36,1.05-0.63,1.71-0.83
		c0.66-0.19,1.39-0.29,2.19-0.29c0.6,0,1.2,0.05,1.79,0.16c0.59,0.11,1.12,0.25,1.59,0.43v-0.88c0-0.95-0.27-1.69-0.81-2.22
		c-0.54-0.53-1.31-0.8-2.33-0.8c-0.69,0-1.36,0.13-2.02,0.38c-0.66,0.25-1.34,0.62-2.04,1.09l-0.83-1.72
		c1.65-1.11,3.36-1.66,5.14-1.66c1.76,0,3.13,0.45,4.11,1.35c0.98,0.9,1.47,2.19,1.47,3.87v4.63c0,0.57,0.23,0.86,0.71,0.88v2.3
		c-0.26,0.05-0.49,0.08-0.68,0.1c-0.19,0.02-0.37,0.02-0.55,0.02c-0.52,0-0.93-0.13-1.21-0.39c-0.29-0.26-0.46-0.6-0.53-1.01
		l-0.08-0.81c-0.57,0.75-1.27,1.33-2.12,1.72C222.51,155.26,221.61,155.46,220.65,155.46z M221.38,153.48
		c0.65,0,1.27-0.12,1.85-0.35c0.58-0.24,1.03-0.57,1.36-0.99c0.34-0.29,0.52-0.6,0.52-0.93v-1.69c-0.46-0.18-0.94-0.32-1.46-0.42
		c-0.51-0.1-1.01-0.15-1.5-0.15c-0.96,0-1.75,0.21-2.36,0.62c-0.61,0.42-0.92,0.96-0.92,1.65c0,0.64,0.24,1.17,0.71,1.6
		C220.04,153.26,220.65,153.48,221.38,153.48z"/>
	<path class="st0" d="M231.32,137.35h2.69v14.17c0,0.47,0.12,0.84,0.37,1.11c0.25,0.27,0.59,0.4,1.03,0.4c0.18,0,0.39-0.03,0.62-0.1
		c0.24-0.07,0.46-0.14,0.68-0.22l0.39,2.11c-0.39,0.18-0.86,0.32-1.4,0.43c-0.54,0.11-1.02,0.16-1.44,0.16
		c-0.93,0-1.65-0.25-2.17-0.76c-0.52-0.51-0.77-1.23-0.77-2.16V137.35z"/>
	<path class="st0" d="M244.12,155.46c-0.87,0-1.66-0.18-2.4-0.53c-0.74-0.35-1.37-0.83-1.91-1.43c-0.54-0.6-0.96-1.31-1.26-2.12
		c-0.3-0.81-0.45-1.68-0.45-2.61c0-0.9,0.14-1.74,0.43-2.53c0.29-0.79,0.69-1.49,1.2-2.09c0.52-0.6,1.12-1.08,1.81-1.43
		c0.69-0.35,1.46-0.53,2.29-0.53c1.03,0,1.93,0.25,2.71,0.75c0.78,0.5,1.4,1.13,1.84,1.9v-7.49h2.69v14.69
		c0,0.31,0.05,0.53,0.16,0.66c0.11,0.13,0.3,0.2,0.58,0.22v2.3c-0.28,0.05-0.5,0.08-0.67,0.1c-0.17,0.02-0.32,0.02-0.43,0.02
		c-0.54,0-0.98-0.14-1.32-0.42c-0.34-0.28-0.53-0.64-0.56-1.08l-0.05-0.95c-0.47,0.8-1.12,1.43-1.93,1.88
		C246.02,155.23,245.12,155.46,244.12,155.46z M244.78,153.16c0.39,0,0.78-0.06,1.18-0.2c0.39-0.13,0.75-0.31,1.08-0.54
		c0.33-0.23,0.61-0.5,0.84-0.81c0.24-0.31,0.41-0.64,0.5-1v-3.35c-0.15-0.41-0.36-0.78-0.62-1.12c-0.27-0.34-0.57-0.64-0.92-0.88
		c-0.35-0.24-0.71-0.43-1.09-0.56c-0.38-0.13-0.77-0.2-1.16-0.2c-0.54,0-1.03,0.12-1.48,0.37c-0.45,0.24-0.84,0.57-1.16,0.98
		c-0.33,0.41-0.58,0.87-0.77,1.39c-0.19,0.52-0.28,1.06-0.28,1.61c0,0.59,0.1,1.14,0.31,1.66c0.2,0.52,0.48,0.98,0.84,1.37
		c0.36,0.39,0.77,0.7,1.24,0.93C243.74,153.05,244.24,153.16,244.78,153.16z"/>
	<path class="st0" d="M275.99,155.21v-12.51l-5.16,9.47h-1.52l-5.19-9.47v12.51h-2.74v-17.38h2.94l5.75,10.62l5.75-10.62h2.94v17.38
		H275.99z"/>
	<path class="st0" d="M281.58,148.8c0-0.9,0.15-1.75,0.46-2.54c0.31-0.8,0.76-1.5,1.33-2.11c0.58-0.6,1.28-1.08,2.09-1.43
		c0.81-0.35,1.73-0.53,2.74-0.53c1.32,0,2.46,0.29,3.41,0.87c0.96,0.58,1.67,1.35,2.14,2.31l-2.62,0.83
		c-0.31-0.54-0.72-0.96-1.25-1.26c-0.52-0.3-1.1-0.45-1.74-0.45c-0.54,0-1.04,0.11-1.51,0.32c-0.47,0.21-0.87,0.51-1.21,0.89
		c-0.34,0.38-0.61,0.84-0.81,1.36c-0.2,0.52-0.29,1.1-0.29,1.74c0,0.62,0.1,1.2,0.3,1.72c0.2,0.53,0.48,0.99,0.83,1.38
		c0.35,0.39,0.76,0.7,1.22,0.92c0.46,0.22,0.96,0.33,1.48,0.33c0.33,0,0.65-0.04,0.98-0.13c0.33-0.09,0.63-0.22,0.9-0.38
		c0.27-0.16,0.5-0.35,0.71-0.56c0.21-0.21,0.36-0.44,0.46-0.69l2.64,0.79c-0.42,0.96-1.13,1.75-2.13,2.36
		c-1,0.61-2.17,0.92-3.53,0.92c-1,0-1.9-0.18-2.72-0.54c-0.82-0.36-1.51-0.84-2.09-1.46c-0.58-0.61-1.03-1.32-1.35-2.12
		C281.73,150.55,281.58,149.7,281.58,148.8z"/>
	<path class="st0" d="M296.68,155.21v-17.38h6.17c1.4,0,2.63,0.23,3.68,0.69c1.05,0.46,1.93,1.08,2.64,1.86
		c0.71,0.79,1.24,1.7,1.6,2.75c0.36,1.05,0.54,2.17,0.54,3.37c0,1.32-0.2,2.52-0.6,3.58c-0.4,1.07-0.97,1.98-1.7,2.74
		c-0.73,0.76-1.62,1.35-2.67,1.76c-1.04,0.42-2.21,0.62-3.5,0.62H296.68z M308.53,146.5c0-0.91-0.13-1.76-0.38-2.52
		c-0.25-0.77-0.62-1.42-1.11-1.97c-0.49-0.55-1.08-0.98-1.79-1.28c-0.7-0.31-1.5-0.47-2.4-0.47h-3.43v12.53h3.43
		c0.91,0,1.72-0.16,2.44-0.48c0.71-0.32,1.3-0.76,1.79-1.32c0.48-0.56,0.84-1.23,1.09-2C308.4,148.23,308.53,147.4,308.53,146.5z"/>
	<path class="st0" d="M319.86,155.46c-1.01,0-1.92-0.18-2.73-0.54c-0.81-0.36-1.5-0.84-2.07-1.44c-0.57-0.6-1.01-1.31-1.32-2.12
		c-0.31-0.81-0.46-1.65-0.46-2.54c0-0.88,0.16-1.72,0.46-2.53c0.31-0.81,0.76-1.51,1.34-2.12c0.58-0.6,1.27-1.09,2.08-1.44
		c0.81-0.36,1.71-0.54,2.71-0.54s1.9,0.18,2.71,0.54c0.81,0.36,1.5,0.84,2.08,1.44c0.58,0.61,1.03,1.31,1.33,2.12
		c0.31,0.81,0.47,1.65,0.47,2.53c0,0.88-0.16,1.73-0.47,2.54c-0.31,0.81-0.75,1.51-1.33,2.12c-0.58,0.6-1.27,1.09-2.08,1.44
		C321.76,155.28,320.86,155.46,319.86,155.46z M316.04,148.85c0,0.62,0.1,1.19,0.29,1.71c0.2,0.52,0.46,0.97,0.81,1.36
		c0.34,0.38,0.75,0.68,1.21,0.9c0.46,0.22,0.97,0.33,1.51,0.33c0.54,0,1.04-0.11,1.5-0.33c0.47-0.22,0.87-0.52,1.21-0.92
		c0.34-0.39,0.61-0.85,0.81-1.37c0.19-0.52,0.29-1.09,0.29-1.71c0-0.6-0.1-1.17-0.29-1.7c-0.2-0.53-0.47-0.99-0.81-1.38
		c-0.34-0.39-0.75-0.7-1.21-0.92c-0.46-0.22-0.96-0.33-1.5-0.33c-0.52,0-1.02,0.11-1.48,0.34c-0.46,0.23-0.87,0.54-1.21,0.93
		s-0.62,0.85-0.82,1.38C316.14,147.68,316.04,148.25,316.04,148.85z"/>
	<path class="st0" d="M340.57,155.21h-2.69v-7.17c0-1.21-0.19-2.08-0.58-2.63c-0.38-0.55-0.95-0.82-1.7-0.82
		c-0.39,0-0.78,0.07-1.17,0.22c-0.39,0.15-0.76,0.35-1.1,0.62c-0.34,0.27-0.65,0.59-0.92,0.96c-0.27,0.37-0.48,0.77-0.62,1.21v7.61
		h-2.69v-12.8h2.45v2.57c0.49-0.86,1.2-1.55,2.13-2.04c0.93-0.5,1.96-0.75,3.08-0.75c0.77,0,1.39,0.14,1.88,0.42
		c0.49,0.28,0.88,0.66,1.16,1.14c0.29,0.48,0.49,1.04,0.6,1.67c0.12,0.63,0.17,1.29,0.17,1.99V155.21z"/>
	<path class="st0" d="M347.35,155.46c-0.62,0-1.2-0.1-1.73-0.3c-0.53-0.21-0.99-0.49-1.37-0.85c-0.38-0.36-0.69-0.78-0.9-1.27
		c-0.22-0.49-0.33-1.02-0.33-1.59c0-0.6,0.13-1.15,0.39-1.64c0.26-0.49,0.63-0.92,1.12-1.28c0.48-0.36,1.05-0.63,1.71-0.83
		c0.66-0.19,1.39-0.29,2.19-0.29c0.6,0,1.2,0.05,1.79,0.16c0.59,0.11,1.12,0.25,1.59,0.43v-0.88c0-0.95-0.27-1.69-0.81-2.22
		c-0.54-0.53-1.31-0.8-2.33-0.8c-0.68,0-1.36,0.13-2.02,0.38c-0.66,0.25-1.34,0.62-2.04,1.09l-0.83-1.72
		c1.65-1.11,3.36-1.66,5.14-1.66c1.76,0,3.13,0.45,4.11,1.35c0.98,0.9,1.47,2.19,1.47,3.87v4.63c0,0.57,0.24,0.86,0.71,0.88v2.3
		c-0.26,0.05-0.48,0.08-0.67,0.1c-0.19,0.02-0.37,0.02-0.55,0.02c-0.52,0-0.93-0.13-1.21-0.39c-0.29-0.26-0.46-0.6-0.53-1.01
		l-0.07-0.81c-0.57,0.75-1.28,1.33-2.12,1.72C349.22,155.26,348.31,155.46,347.35,155.46z M348.08,153.48
		c0.65,0,1.27-0.12,1.85-0.35c0.58-0.24,1.03-0.57,1.36-0.99c0.34-0.29,0.51-0.6,0.51-0.93v-1.69c-0.45-0.18-0.94-0.32-1.45-0.42
		c-0.51-0.1-1.02-0.15-1.51-0.15c-0.96,0-1.75,0.21-2.36,0.62c-0.62,0.42-0.92,0.96-0.92,1.65c0,0.64,0.23,1.17,0.71,1.6
		C346.75,153.26,347.35,153.48,348.08,153.48z"/>
	<path class="st0" d="M358.02,137.35h2.69v14.17c0,0.47,0.12,0.84,0.37,1.11c0.24,0.27,0.59,0.4,1.03,0.4c0.18,0,0.39-0.03,0.62-0.1
		c0.24-0.07,0.46-0.14,0.68-0.22l0.39,2.11c-0.39,0.18-0.86,0.32-1.39,0.43c-0.54,0.11-1.02,0.16-1.44,0.16
		c-0.93,0-1.65-0.25-2.17-0.76c-0.51-0.51-0.77-1.23-0.77-2.16V137.35z"/>
	<path class="st0" d="M370.83,155.46c-0.87,0-1.67-0.18-2.4-0.53c-0.73-0.35-1.37-0.83-1.91-1.43c-0.54-0.6-0.96-1.31-1.26-2.12
		c-0.3-0.81-0.45-1.68-0.45-2.61c0-0.9,0.14-1.74,0.43-2.53c0.29-0.79,0.69-1.49,1.2-2.09c0.51-0.6,1.12-1.08,1.81-1.43
		c0.69-0.35,1.46-0.53,2.29-0.53c1.03,0,1.94,0.25,2.72,0.75c0.78,0.5,1.39,1.13,1.83,1.9v-7.49h2.69v14.69
		c0,0.31,0.05,0.53,0.16,0.66c0.11,0.13,0.3,0.2,0.57,0.22v2.3c-0.28,0.05-0.5,0.08-0.67,0.1c-0.17,0.02-0.31,0.02-0.43,0.02
		c-0.54,0-0.98-0.14-1.32-0.42c-0.34-0.28-0.53-0.64-0.56-1.08l-0.05-0.95c-0.47,0.8-1.12,1.43-1.93,1.88
		C372.73,155.23,371.82,155.46,370.83,155.46z M371.49,153.16c0.39,0,0.79-0.06,1.18-0.2c0.39-0.13,0.75-0.31,1.08-0.54
		c0.32-0.23,0.61-0.5,0.84-0.81c0.23-0.31,0.4-0.64,0.5-1v-3.35c-0.15-0.41-0.35-0.78-0.62-1.12c-0.27-0.34-0.57-0.64-0.92-0.88
		c-0.34-0.24-0.71-0.43-1.09-0.56c-0.38-0.13-0.77-0.2-1.16-0.2c-0.54,0-1.03,0.12-1.48,0.37c-0.45,0.24-0.84,0.57-1.16,0.98
		c-0.33,0.41-0.58,0.87-0.77,1.39c-0.19,0.52-0.28,1.06-0.28,1.61c0,0.59,0.1,1.14,0.3,1.66c0.21,0.52,0.49,0.98,0.85,1.37
		c0.36,0.39,0.77,0.7,1.24,0.93C370.45,153.05,370.95,153.16,371.49,153.16z"/>
	<path class="st0" d="M185.96,162.32v17.38h-2.77v-7.66h-8.77v7.66h-2.74v-17.38h2.74v7.27h8.77v-7.27H185.96z"/>
	<path class="st0" d="M195.36,179.94c-1.01,0-1.92-0.18-2.73-0.54c-0.81-0.36-1.5-0.84-2.07-1.44c-0.57-0.61-1.01-1.31-1.32-2.12
		c-0.31-0.81-0.46-1.65-0.46-2.53c0-0.88,0.15-1.72,0.46-2.53c0.31-0.81,0.75-1.51,1.34-2.12c0.58-0.6,1.27-1.08,2.08-1.44
		c0.81-0.36,1.71-0.54,2.71-0.54c0.99,0,1.9,0.18,2.7,0.54c0.81,0.36,1.5,0.84,2.08,1.44c0.58,0.61,1.02,1.31,1.33,2.12
		c0.31,0.81,0.46,1.65,0.46,2.53c0,0.88-0.15,1.73-0.46,2.53c-0.31,0.81-0.75,1.51-1.33,2.12c-0.58,0.6-1.28,1.08-2.08,1.44
		C197.25,179.76,196.35,179.94,195.36,179.94z M191.54,173.33c0,0.62,0.1,1.19,0.29,1.71c0.19,0.52,0.46,0.97,0.81,1.36
		c0.34,0.38,0.75,0.69,1.21,0.9c0.47,0.22,0.97,0.33,1.51,0.33c0.54,0,1.04-0.11,1.5-0.33c0.46-0.22,0.87-0.53,1.21-0.92
		c0.34-0.39,0.61-0.85,0.81-1.37c0.2-0.52,0.29-1.09,0.29-1.71c0-0.6-0.1-1.17-0.29-1.7c-0.2-0.53-0.47-0.99-0.81-1.38
		c-0.34-0.39-0.75-0.7-1.21-0.92c-0.46-0.22-0.97-0.33-1.5-0.33c-0.52,0-1.02,0.12-1.48,0.34c-0.47,0.23-0.87,0.54-1.21,0.93
		c-0.34,0.39-0.62,0.85-0.82,1.38C191.64,172.16,191.54,172.73,191.54,173.33z"/>
	<path class="st0" d="M208.53,179.94c-1.34,0-2.35-0.44-3.04-1.31c-0.69-0.87-1.03-2.17-1.03-3.9v-7.83h2.69v7.29
		c0,2.3,0.82,3.45,2.45,3.45c0.77,0,1.49-0.23,2.18-0.71c0.68-0.47,1.21-1.16,1.59-2.05v-7.98h2.69v9.62c0,0.31,0.05,0.53,0.16,0.66
		c0.11,0.13,0.3,0.2,0.57,0.22v2.3c-0.28,0.05-0.51,0.08-0.68,0.1c-0.18,0.01-0.35,0.02-0.52,0.02c-0.49,0-0.91-0.14-1.25-0.41
		c-0.34-0.27-0.52-0.61-0.54-1.04l-0.05-1.27c-0.57,0.93-1.31,1.63-2.23,2.12C210.62,179.7,209.62,179.94,208.53,179.94z"/>
	<path class="st0" d="M224.39,179.94c-1.03,0-2.05-0.17-3.07-0.5c-1.02-0.33-1.9-0.81-2.63-1.43l1.08-1.71
		c0.77,0.55,1.53,0.98,2.28,1.26c0.75,0.29,1.52,0.43,2.3,0.43c0.8,0,1.43-0.15,1.9-0.46c0.46-0.31,0.7-0.75,0.7-1.32
		c0-0.54-0.26-0.93-0.78-1.18c-0.52-0.24-1.34-0.51-2.45-0.81c-0.8-0.21-1.49-0.42-2.06-0.61c-0.57-0.2-1.04-0.42-1.39-0.68
		c-0.36-0.26-0.62-0.57-0.79-0.91c-0.16-0.34-0.24-0.76-0.24-1.25c0-0.65,0.13-1.23,0.38-1.74c0.25-0.51,0.6-0.93,1.05-1.29
		c0.45-0.35,0.98-0.62,1.58-0.8c0.6-0.18,1.26-0.27,1.96-0.27c0.96,0,1.86,0.15,2.69,0.44c0.83,0.29,1.57,0.72,2.23,1.28l-1.15,1.62
		c-1.19-0.95-2.46-1.42-3.79-1.42c-0.69,0-1.26,0.14-1.73,0.43c-0.46,0.29-0.7,0.74-0.7,1.36c0,0.26,0.05,0.48,0.15,0.66
		c0.1,0.18,0.26,0.33,0.48,0.46c0.22,0.13,0.51,0.25,0.86,0.36c0.35,0.11,0.79,0.22,1.31,0.35c0.86,0.21,1.61,0.42,2.24,0.64
		c0.63,0.21,1.15,0.46,1.55,0.75c0.41,0.28,0.71,0.62,0.91,1c0.2,0.38,0.29,0.85,0.29,1.39c0,1.22-0.46,2.19-1.38,2.9
		C227.23,179.59,225.97,179.94,224.39,179.94z"/>
	<path class="st0" d="M237.93,179.94c-1,0-1.9-0.18-2.72-0.53c-0.82-0.35-1.51-0.83-2.09-1.43c-0.58-0.6-1.03-1.31-1.35-2.11
		c-0.32-0.8-0.48-1.65-0.48-2.55c0-0.9,0.16-1.75,0.48-2.56c0.32-0.81,0.77-1.52,1.35-2.13c0.58-0.61,1.28-1.09,2.09-1.44
		c0.82-0.35,1.73-0.53,2.74-0.53c1,0,1.9,0.18,2.71,0.54c0.81,0.36,1.5,0.84,2.07,1.43c0.57,0.6,1.01,1.29,1.31,2.08
		c0.3,0.79,0.45,1.62,0.45,2.48c0,0.2-0.01,0.38-0.02,0.55c-0.02,0.17-0.03,0.31-0.05,0.43h-10.26c0.05,0.57,0.18,1.08,0.41,1.54
		c0.22,0.46,0.5,0.85,0.85,1.19c0.35,0.34,0.75,0.59,1.2,0.77c0.45,0.18,0.92,0.27,1.41,0.27c0.36,0,0.71-0.05,1.06-0.14
		c0.35-0.09,0.67-0.22,0.97-0.39c0.29-0.17,0.55-0.38,0.79-0.62c0.23-0.24,0.41-0.52,0.54-0.81l2.3,0.66
		c-0.44,0.96-1.17,1.75-2.19,2.36C240.47,179.64,239.28,179.94,237.93,179.94z M241.82,172.33c-0.05-0.54-0.18-1.04-0.4-1.49
		c-0.22-0.46-0.5-0.84-0.84-1.16c-0.35-0.32-0.74-0.57-1.2-0.75c-0.46-0.18-0.94-0.27-1.44-0.27c-0.51,0-0.98,0.09-1.43,0.27
		c-0.45,0.18-0.85,0.43-1.19,0.75c-0.34,0.32-0.62,0.71-0.83,1.16c-0.21,0.46-0.34,0.95-0.39,1.49H241.82z"/>
	<path class="st0" d="M252.47,170.88c0-1.04,0.19-2.09,0.56-3.12c0.38-1.04,0.93-1.97,1.65-2.79c0.73-0.82,1.61-1.49,2.66-2
		c1.05-0.51,2.23-0.76,3.55-0.76c1.58,0,2.94,0.35,4.06,1.05c1.12,0.7,1.97,1.62,2.55,2.74l-2.15,1.45
		c-0.25-0.52-0.54-0.96-0.88-1.32c-0.35-0.36-0.72-0.64-1.13-0.86c-0.41-0.21-0.83-0.36-1.27-0.46c-0.44-0.09-0.87-0.13-1.27-0.13
		c-0.91,0-1.71,0.18-2.4,0.55c-0.68,0.37-1.26,0.85-1.72,1.46c-0.46,0.6-0.81,1.28-1.05,2.03c-0.24,0.75-0.36,1.5-0.36,2.25
		c0,0.85,0.14,1.66,0.42,2.42c0.28,0.77,0.66,1.44,1.16,2.03c0.5,0.59,1.09,1.06,1.77,1.41c0.69,0.35,1.44,0.53,2.25,0.53
		c0.43,0,0.86-0.05,1.31-0.16c0.45-0.11,0.88-0.28,1.3-0.51c0.41-0.24,0.8-0.53,1.15-0.89c0.35-0.36,0.64-0.79,0.87-1.3l2.28,1.3
		c-0.28,0.65-0.67,1.23-1.18,1.72c-0.51,0.5-1.08,0.92-1.71,1.26c-0.63,0.34-1.31,0.6-2.02,0.78c-0.71,0.18-1.41,0.27-2.09,0.27
		c-1.22,0-2.34-0.26-3.35-0.78c-1.01-0.52-1.89-1.2-2.62-2.04c-0.73-0.84-1.3-1.79-1.71-2.86
		C252.67,173.08,252.47,171.99,252.47,170.88z"/>
	<path class="st0" d="M281.7,179.69H279v-7.17c0-1.17-0.21-2.04-0.62-2.61c-0.41-0.56-1.02-0.84-1.8-0.84
		c-0.38,0-0.75,0.07-1.13,0.22c-0.38,0.15-0.73,0.36-1.06,0.62c-0.34,0.27-0.63,0.59-0.89,0.96s-0.46,0.77-0.59,1.21v7.61h-2.69
		v-17.87h2.69v7.64c0.49-0.88,1.16-1.57,1.99-2.06c0.84-0.49,1.76-0.73,2.75-0.73c0.8,0,1.46,0.14,1.97,0.43
		c0.51,0.29,0.93,0.67,1.24,1.14c0.31,0.47,0.53,1.02,0.65,1.65c0.12,0.63,0.19,1.29,0.19,2V179.69z"/>
	<path class="st0" d="M288.48,179.94c-0.62,0-1.2-0.1-1.73-0.3c-0.53-0.21-0.99-0.49-1.37-0.85c-0.38-0.36-0.68-0.78-0.9-1.27
		c-0.22-0.49-0.33-1.02-0.33-1.59c0-0.6,0.13-1.15,0.39-1.64c0.26-0.49,0.63-0.91,1.11-1.27c0.48-0.36,1.05-0.64,1.72-0.83
		c0.66-0.2,1.39-0.29,2.19-0.29c0.6,0,1.2,0.05,1.79,0.16c0.59,0.11,1.12,0.25,1.59,0.43v-0.88c0-0.95-0.27-1.69-0.81-2.21
		c-0.54-0.53-1.31-0.79-2.32-0.79c-0.69,0-1.36,0.12-2.02,0.38c-0.66,0.25-1.34,0.62-2.04,1.09l-0.83-1.71
		c1.65-1.11,3.36-1.66,5.14-1.66c1.76,0,3.13,0.45,4.11,1.35c0.98,0.9,1.47,2.19,1.47,3.87v4.63c0,0.57,0.24,0.86,0.71,0.88v2.3
		c-0.26,0.05-0.49,0.08-0.67,0.1c-0.19,0.01-0.37,0.02-0.55,0.02c-0.52,0-0.93-0.13-1.21-0.39c-0.28-0.26-0.46-0.6-0.52-1l-0.08-0.8
		c-0.57,0.75-1.28,1.33-2.12,1.72C290.34,179.74,289.44,179.94,288.48,179.94z M289.21,177.96c0.65,0,1.27-0.12,1.85-0.35
		c0.58-0.24,1.03-0.57,1.36-0.99c0.34-0.29,0.51-0.6,0.51-0.93v-1.69c-0.46-0.18-0.94-0.32-1.46-0.42c-0.51-0.1-1.02-0.15-1.51-0.15
		c-0.96,0-1.75,0.21-2.36,0.62c-0.61,0.42-0.92,0.96-0.92,1.65c0,0.64,0.24,1.17,0.71,1.6
		C287.87,177.74,288.48,177.96,289.21,177.96z"/>
	<path class="st0" d="M306.32,169.22c-1.05,0.03-1.97,0.27-2.78,0.72c-0.81,0.45-1.39,1.09-1.73,1.92v7.83h-2.69v-12.8h2.5v2.86
		c0.44-0.88,1.01-1.58,1.72-2.12c0.71-0.53,1.47-0.82,2.29-0.87c0.16,0,0.3,0,0.41,0c0.11,0,0.2,0.01,0.28,0.03V169.22z"/>
	<path class="st0" d="M308.53,164.79v-2.96h2.69v2.96H308.53z M308.53,179.69v-12.8h2.69v12.8H308.53z"/>
	<path class="st0" d="M321.82,179.04c-0.34,0.16-0.82,0.35-1.42,0.55c-0.6,0.2-1.25,0.31-1.93,0.31c-0.43,0-0.83-0.06-1.2-0.17
		c-0.38-0.12-0.71-0.29-0.99-0.51c-0.29-0.23-0.51-0.53-0.68-0.89c-0.16-0.37-0.24-0.81-0.24-1.33v-8.01h-1.69v-2.08h1.69v-4.21
		h2.69v4.21h2.79v2.08h-2.79v7.15c0.03,0.46,0.18,0.79,0.43,0.99c0.25,0.21,0.56,0.31,0.94,0.31c0.38,0,0.73-0.07,1.08-0.2
		c0.34-0.13,0.59-0.23,0.76-0.32L321.82,179.04z"/>
	<path class="st0" d="M323.93,164.79v-2.96h2.69v2.96H323.93z M323.93,179.69v-12.8h2.69v12.8H323.93z"/>
	<path class="st0" d="M335.89,179.94c-1,0-1.9-0.18-2.72-0.53c-0.82-0.35-1.51-0.83-2.09-1.43c-0.58-0.6-1.03-1.31-1.35-2.11
		c-0.32-0.8-0.48-1.65-0.48-2.55c0-0.9,0.16-1.75,0.48-2.56c0.32-0.81,0.77-1.52,1.35-2.13c0.58-0.61,1.27-1.09,2.09-1.44
		c0.82-0.35,1.73-0.53,2.74-0.53c1,0,1.9,0.18,2.71,0.54c0.81,0.36,1.5,0.84,2.07,1.43c0.57,0.6,1.01,1.29,1.31,2.08
		c0.3,0.79,0.45,1.62,0.45,2.48c0,0.2-0.01,0.38-0.03,0.55c-0.02,0.17-0.03,0.31-0.05,0.43h-10.26c0.05,0.57,0.18,1.08,0.41,1.54
		c0.22,0.46,0.51,0.85,0.86,1.19c0.35,0.34,0.75,0.59,1.2,0.77c0.45,0.18,0.92,0.27,1.41,0.27c0.36,0,0.71-0.05,1.06-0.14
		c0.35-0.09,0.67-0.22,0.97-0.39c0.29-0.17,0.55-0.38,0.78-0.62c0.23-0.24,0.4-0.52,0.54-0.81l2.3,0.66
		c-0.44,0.96-1.17,1.75-2.19,2.36C338.44,179.64,337.25,179.94,335.89,179.94z M339.79,172.33c-0.05-0.54-0.18-1.04-0.4-1.49
		c-0.22-0.46-0.5-0.84-0.85-1.16c-0.34-0.32-0.74-0.57-1.2-0.75c-0.46-0.18-0.94-0.27-1.45-0.27c-0.51,0-0.98,0.09-1.43,0.27
		c-0.45,0.18-0.84,0.43-1.19,0.75c-0.35,0.32-0.62,0.71-0.84,1.16c-0.21,0.46-0.34,0.95-0.39,1.49H339.79z"/>
	<path class="st0" d="M349.55,179.94c-1.03,0-2.05-0.17-3.07-0.5c-1.02-0.33-1.89-0.81-2.63-1.43l1.08-1.71
		c0.77,0.55,1.52,0.98,2.28,1.26c0.75,0.29,1.52,0.43,2.3,0.43c0.8,0,1.43-0.15,1.9-0.46c0.46-0.31,0.7-0.75,0.7-1.32
		c0-0.54-0.26-0.93-0.78-1.18c-0.52-0.24-1.34-0.51-2.45-0.81c-0.8-0.21-1.49-0.42-2.05-0.61c-0.57-0.2-1.04-0.42-1.4-0.68
		c-0.36-0.26-0.62-0.57-0.78-0.91c-0.16-0.34-0.24-0.76-0.24-1.25c0-0.65,0.13-1.23,0.38-1.74c0.25-0.51,0.61-0.93,1.05-1.29
		c0.45-0.35,0.97-0.62,1.58-0.8c0.6-0.18,1.26-0.27,1.96-0.27c0.96,0,1.86,0.15,2.69,0.44c0.83,0.29,1.57,0.72,2.23,1.28l-1.15,1.62
		c-1.19-0.95-2.46-1.42-3.79-1.42c-0.69,0-1.26,0.14-1.73,0.43c-0.46,0.29-0.7,0.74-0.7,1.36c0,0.26,0.05,0.48,0.15,0.66
		c0.1,0.18,0.25,0.33,0.47,0.46c0.22,0.13,0.51,0.25,0.86,0.36c0.35,0.11,0.79,0.22,1.31,0.35c0.87,0.21,1.61,0.42,2.24,0.64
		c0.63,0.21,1.15,0.46,1.55,0.75c0.41,0.28,0.71,0.62,0.91,1c0.2,0.38,0.29,0.85,0.29,1.39c0,1.22-0.46,2.19-1.38,2.9
		C352.39,179.59,351.14,179.94,349.55,179.94z"/>
	<g>
		<path class="st0" d="M358.13,165.98c1.21,0,2.17,0.98,2.17,2.21c0,1.25-0.96,2.22-2.18,2.22c-1.21,0-2.18-0.97-2.18-2.22
			C355.94,166.96,356.92,165.98,358.13,165.98L358.13,165.98z M358.12,166.32c-0.97,0-1.77,0.83-1.77,1.86
			c0,1.05,0.79,1.87,1.78,1.87c0.98,0.01,1.77-0.82,1.77-1.86S359.12,166.32,358.12,166.32L358.12,166.32z M357.71,169.47h-0.39
			v-2.46c0.2-0.03,0.4-0.06,0.7-0.06c0.37,0,0.62,0.08,0.76,0.19c0.15,0.11,0.22,0.27,0.22,0.51c0,0.33-0.21,0.52-0.48,0.6v0.02
			c0.21,0.04,0.36,0.23,0.41,0.6c0.06,0.38,0.12,0.53,0.15,0.61h-0.41c-0.06-0.08-0.12-0.3-0.17-0.63
			c-0.06-0.31-0.22-0.43-0.53-0.43h-0.28V169.47z M357.71,168.11H358c0.33,0,0.6-0.12,0.6-0.42c0-0.21-0.15-0.43-0.6-0.43
			c-0.13,0-0.21,0.01-0.29,0.02V168.11z"/>
	</g>
</g>
</svg>
